<svg height="85.333336" viewBox="0 0 85.333336 85.333336" width="85.333336" xmlns="http://www.w3.org/2000/svg"><g transform="matrix(.13333333 0 0 -.13333333 0 85.333333)"><path d="m640 320c0-176.73-143.27-320-320-320s-320 143.27-320 320 143.27 320 320 320 320-143.27 320-320" fill="#77caa9"/><path d="m460 160c-55.23 0-100 44.773-100 100 0 3.375.168 6.711.492 10 5.02-50.535 47.653-90 99.508-90s94.488 39.465 99.508 90c.324-3.289.492-6.625.492-10 0-55.227-44.773-100-100-100m-55.66 77.598c-8.992 11.773-14.34 26.476-14.34 42.402 0 11.148 2.621 21.703 7.281 31.07l12.934 12.934 9.887-19.227c-12.329-10.996-20.102-26.996-20.102-44.777 0-7.914 1.539-15.477 4.34-22.402m111.32 0c2.801 6.925 4.34 14.488 4.34 22.402 0 33.086-26.914 60-60 60-4.547 0-8.973-.508-13.234-1.469l-13.461 26.18c8.23 3.406 17.246 5.289 26.695 5.289 38.598 0 70-31.402 70-70 0-15.926-5.348-30.629-14.34-42.402" fill="#62a48d"/><path d="m180 160c-55.227 0-100 44.773-100 100 0 3.375.168 6.711.4922 10 5.0195-50.535 47.6528-90 99.5078-90 41.008 0 76.246 24.68 91.68 60h6.32c-9.266-45.645-49.621-80-98-80m69.289 110c-.91 6.34-2.676 12.406-5.168 18.078l4.844 3.965c.68-3.914 1.035-7.938 1.035-12.043 0-3.395-.242-6.734-.711-10m-138.578 0c-.469 3.266-.711 6.605-.711 10 0 38.598 31.402 70 70 70 23.359 0 44.086-11.5 56.809-29.141l-10.395-8.504c-12.363 10.973-28.625 17.645-46.414 17.645-35.203 0-64.422-26.121-69.289-60" fill="#62a48d"/><path d="m180 380c-55.23 0-100-44.773-100-100s44.77-100 100-100 100 44.773 100 100-44.77 100-100 100m0-30c38.598 0 70-31.402 70-70s-31.402-70-70-70-70 31.402-70 70 31.402 70 70 70" fill="#495672"/><path d="m460 380c-55.23 0-100-44.773-100-100s44.77-100 100-100c55.227 0 100 44.773 100 100s-44.773 100-100 100m0-30c38.598 0 70-31.402 70-70s-31.402-70-70-70-70 31.402-70 70 31.402 70 70 70" fill="#495672"/><path d="m320 240h-42c1.313 6.461 2 13.148 2 20 0 3.375-.168 6.711-.492 10h34.281l1.293 1.293-26.559 53.117-14.062-11.508c-3.406 9.782-8.289 18.871-14.379 27l14.688 12.016-14.043 28.082h-40.727c-8.285 0-15 6.715-15 15s6.715 15 15 15h50c5.684 0 10.875-3.207 13.418-8.289l20.855-41.711h87.43l-30.859 60h-40.844c-8.285 0-15 6.715-15 15s6.715 15 15 15h50c5.621 0 10.766-3.141 13.34-8.141l36.199-70.382c-19.43-8.606-35.598-23.215-46.16-41.477h-54.106l18.172-36.344 35.387 35.387c-8.172-14.492-12.832-31.223-12.832-49.043 0-2.027.059-4.035.18-6.031l-29.575-29.574c-2.812-2.813-6.625-4.395-10.605-4.395m-82.582 0h-57.418c-6.34 0-11.996 3.984-14.125 9.957-2.137 5.973-.277 12.637 4.629 16.652l55.91 45.746c7.524-6.675 13.606-14.949 17.707-24.277l-22.101-18.078h27.269c-1.586-11.035-5.754-21.246-11.871-30m222.598 4.996c-5.446 0-10.696 2.973-13.356 8.145l-26.558 51.636c7.461 6.653 16.586 11.477 26.664 13.754l26.574-51.672c3.789-7.367.89-16.41-6.481-20.199-2.195-1.129-4.539-1.664-6.843-1.664" fill="#62a48d"/><path d="m420.102 304.777-9.887 19.227-12.934-12.934c7.516 15.118 20.344 27.149 36.024 33.641l13.461-26.18c-10.078-2.277-19.203-7.101-26.664-13.754" fill="#538777"/><path d="m278 240h-6.32c4.082 9.344 6.777 19.43 7.828 30 .324-3.289.492-6.625.492-10 0-6.852-.687-13.539-2-20m-33.879 48.078c-4.101 9.328-10.183 17.602-17.707 24.277l10.395 8.504c6.058-8.406 10.308-18.207 12.156-28.816z" fill="#538777"/><path d="m271.68 240h-34.262c6.117 8.754 10.285 18.965 11.871 30h30.219c-1.051-10.57-3.746-20.656-7.828-30m-22.715 52.043c-1.848 10.609-6.098 20.41-12.156 28.816l23.273 19.043c6.09-8.129 10.973-17.218 14.379-27z" fill="#404a5f"/><path d="m360.18 273.969c-.121 1.996-.18 4.004-.18 6.031 0 17.82 4.66 34.551 12.832 49.043l.957.957h-.41c10.562 18.262 26.73 32.871 46.16 41.477l13.766-26.766c-15.68-6.492-28.508-18.523-36.024-33.641z" fill="#404a5f"/><g fill="#fff"><path d="m473.34 286.859-90 175c-2.563 4.981-7.742 8.141-13.34 8.141h-50c-8.285 0-15-6.715-15-15s6.715-15 15-15h40.848l85.812-166.859c3.789-7.368 12.832-10.266 20.199-6.481 7.368 3.789 10.27 12.832 6.481 20.199"/><path d="m343.301 306.941-60 115c-2.59 4.961-7.703 8.059-13.301 8.059h-50c-8.285 0-15-6.715-15-15s6.715-15 15-15h40.906l55.793-106.937c3.832-7.344 12.895-10.192 20.239-6.36 7.343 3.828 10.195 12.891 6.363 20.235"/><path d="m180 275v-15h140c4.008 0 7.773 1.563 10.605 4.395l90 90c4.29 4.289 5.575 10.742 3.254 16.347-2.324 5.602-7.793 9.258-13.859 9.258h-120c-3.469 0-6.816-1.195-9.5-3.391l-110-90c-4.906-4.015-6.758-10.679-4.629-16.652 2.133-5.973 7.789-9.957 14.129-9.957v15l9.5-11.609 105.852 86.609h78.433l-59.996-60h-133.789v-15l9.5-11.609z"/></g></g></svg>